<?xml version="1.0" encoding="utf-8"?>
<!-- Generator: Adobe Illustrator 23.0.3, SVG Export Plug-In . SVG Version: 6.00 Build 0)  -->
<svg version="1.1" id="Icons" xmlns="http://www.w3.org/2000/svg" xmlns:xlink="http://www.w3.org/1999/xlink" x="0px" y="0px"
	 viewBox="0 0 32 32" style="enable-background:new 0 0 32 32;" xml:space="preserve">
<style type="text/css">
	.st0{fill:none;stroke:#000000;stroke-width:2;stroke-linecap:round;stroke-linejoin:round;stroke-miterlimit:10;}
</style>
<polyline class="st0" points="11,31 11,10 21,10 21,31 "/>
<polyline class="st0" points="21,31 21,16 30,16 30,31 "/>
<polyline class="st0" points="2,31 2,21 11,21 11,31 "/>
<rect x="12" y="7" class="st0" width="8" height="3"/>
<rect x="14" y="4" class="st0" width="4" height="3"/>
<line class="st0" x1="16" y1="1" x2="16" y2="4"/>
<line class="st0" x1="14" y1="14" x2="18" y2="14"/>
<line class="st0" x1="3" y1="25" x2="7" y2="25"/>
<line class="st0" x1="3" y1="29" x2="7" y2="29"/>
<line class="st0" x1="14" y1="18" x2="18" y2="18"/>
<line class="st0" x1="14" y1="22" x2="18" y2="22"/>
<line class="st0" x1="14" y1="26" x2="18" y2="26"/>
<line class="st0" x1="14" y1="30" x2="18" y2="30"/>
<line class="st0" x1="24" y1="20" x2="24" y2="21"/>
<line class="st0" x1="27" y1="20" x2="27" y2="21"/>
<line class="st0" x1="24" y1="24" x2="24" y2="25"/>
<line class="st0" x1="27" y1="24" x2="27" y2="25"/>
<line class="st0" x1="24" y1="28" x2="24" y2="29"/>
<line class="st0" x1="27" y1="28" x2="27" y2="29"/>
</svg>
