<?xml version="1.0" ?><svg height="109.86267mm" viewBox="0 0 156.04759 109.86267" width="156.04759mm" xmlns="http://www.w3.org/2000/svg">
    <path color="#000" d="m 6641.6848,2277.6809 c -23.3779,3.9849 -27.6832,-7.9408 -70.1347,11.9551 -5.5048,5.8368 -1.9441,10.4287 4.1269,14.6758 28.5326,-3.818 44.1587,-17.6355 66.0078,-26.6309 z m 99.627,16.795 c -4.2246,0.013 -8.5077,0.1259 -12.8477,0.3417 -77.669,3.8635 -144.7898,47.3005 -175.7793,111.2774 -21.0238,-13.847 -34.1876,-39.4626 -0.2519,-62.8359 28.8384,-19.8625 14.7583,-28.2449 -19.8437,-24.662 -58.7372,6.0821 -33.6064,37.9952 -23.2227,36.1776 -67.8452,21.8906 -12.425,39.5553 5.7148,58.498 3.0227,28.5745 12.3564,34.8665 22.7559,37.3965 -1.408,7.2374 -0.7027,45.7641 -1.2421,53.3133 -17.4485,-11.9212 -20.6434,-20.2479 -36.7915,-10.038 -21.3764,12.0144 -12.1274,30.9513 32.8988,43.6368 -9.6701,20.0529 -22.3411,40.3112 26.125,41.4961 33.1502,58.283 96.6951,97.5187 169.6367,98.9668 108.6416,2.1568 200.6924,-61.1358 210.1993,-179.7461 1.5101,-18.8406 0.4761,-37.3029 -2.9356,-54.9512 17.3457,-4.0959 53.6457,-12.8666 54.2891,-34.0839 37.4994,-24.3005 44.0789,-43.8508 -5.9317,-54.7051 53.0416,-32.4861 24.248,-39.9889 -25.416,-41.1192 -18.639,-1.8349 -28.0345,2.4962 -7.6406,28.377 18.6536,23.6724 31.2219,43.5525 -24.7129,68.8652 -26.3041,-67.5223 -91.3591,-116.4856 -185.0039,-116.205 z m 281.1758,152.9316 c -2.8558,-0.089 -4.1615,3.351 -2.3477,13.9199 4.1458,24.1574 -17.286,30.7985 -37.5234,40.3477 -22.4157,8.3476 -19.1138,25.8008 -0.9141,31.3027 18.1996,5.5018 33.2369,-10.7505 49.8203,-30.418 16.5834,-19.6675 16.0214,-37.6272 6.3243,-44.9629 -5.4547,-4.1263 -11.6877,-10.0749 -15.3594,-10.1894 z" fill="#fff" overflow="visible" paint-order="fill markers stroke" transform="translate(-150.9446,131.91781) matrix(0.26458333,0,0,0.26458333,-1559.8686,-732.58414)"/>
    <path d="m 6562.4537,2607.6592 c -3.3582,-4.7219 -1.7526,-7.1106 0.3781,-9.2437 2.1307,-2.1331 4.7866,-4.0106 9.0935,0.6362 33.8842,39.947 75.4322,60.7161 113.5349,65.0214 1.5009,0.3633 5.148,-0.5598 8.7783,-2.2218 3.4158,-1.5638 11.4909,-4.1659 17.9446,-5.7824 10.6105,-2.6577 14.1322,-2.9624 36.7782,-3.1826 19.7095,-0.1915 25.3707,0.083 26.5767,1.2889 0.8427,0.8428 2.5549,1.5322 3.8048,1.5322 3.8488,0 6.6812,2.191 6.6812,5.1682 0,3.3675 0.5989,3.3919 10.826,0.4401 30.6779,-2.171 94.6627,-35.8505 121.763,-103.7715 0.6543,-2.727 0.3522,-3.0782 -3.2234,-3.749 -7.5188,-1.4106 -13.2432,-8.3016 -14.8637,-17.8927 -0.4447,-2.6322 -2.045,-8.4188 -3.5562,-12.8591 -1.5111,-4.4404 -3.0495,-12.1758 -3.4188,-17.19 -0.9333,-12.6774 -1.8517,-13.5454 -13.512,-12.7705 -5.0142,0.3332 -11.3787,1.4263 -14.1434,2.429 -6.6617,2.4162 -11.4971,0.6331 -11.4971,-4.2395 0,-3.6213 3.5127,-5.5913 14.022,-7.8641 13.3507,-2.8874 22.0428,-1.8144 29.0682,3.5882 5.1828,3.9857 7.0094,8.9483 8.1991,22.2756 0.5594,6.2677 2.0685,14.6677 3.3533,18.6665 1.2849,3.999 2.3533,8.1015 2.3741,9.1167 0.061,2.9332 4.0375,6.9342 7.6017,7.6471 3.5182,0.7036 4.0385,0.095 7.6305,-8.9236 9.0085,-30.582 8.1271,-47.5587 7.8579,-77.2685 0.1455,-3.6892 5.3193,-7.249 8.955,-3.4542 6.3604,9.7088 4.8195,22.5629 4.416,34.9345 -2.9686,90.993 -70.5123,170.1575 -153.8752,189.6818 -105.0625,18.2784 -179.327,-6.9722 -231.5473,-72.0132 z m 202.2663,60.4505 c 23.6516,-1.7836 15.3569,-4.5974 -4.4504,-4.3051 -19.6062,0.1811 -25.4776,-1.3997 -41.4805,4.3022 14.7299,0.9019 31.2583,1.9792 45.9309,0 z m -124.1767,-44.0289 c -11.2996,-3.1952 -18.8862,-6.6779 -24.196,-11.1074 -8.2433,-7.3886 -14.3782,-13.3676 -16.6375,-23.378 -0.4743,-2.1845 -1.3297,-4.2702 -1.901,-4.6349 -0.5712,-0.3647 -5.5067,0.095 -10.9676,1.0221 -5.4611,0.9268 -11.9804,1.73 -14.4874,1.7849 -37.5657,6.0115 -83.7092,-25.0406 -51.2098,-46.0614 l 4.321,-2.6705 -4.4751,-1.3668 c -12.6715,-3.5713 -26.8121,-8.5356 -34.9893,-18.1627 -6.4052,-9.5682 -4.9414,-16.1078 1.026,-21.9894 7.2821,-7.2438 12.9364,-8.6401 17.0433,-4.2085 3.5696,3.8516 3.481,5.7774 -0.3755,8.1658 -1.7236,1.0675 -4.7745,3.4625 -6.7799,5.3222 -3.4619,3.2105 -3.5643,3.5396 -2.0259,6.5146 7.5811,9.0692 33.9176,14.4475 37.5255,15.2009 4.3573,0.9084 8.5164,2.4638 9.2423,3.4564 4.2528,1.7421 5.0893,7.9073 0.4987,8.2451 -6.0224,0.3649 -5.8154,0.2401 -4.3335,2.6129 1.198,1.9184 0.9324,2.568 -1.9804,4.8432 -27.2987,18.6736 25.2875,28.3776 40.308,26.9941 32.9712,-4.4687 36.02,-4.6195 38.9117,-1.9254 2.8915,2.694 2.9767,6.2515 0.1709,7.1421 -10.4508,10.7497 10.5899,26.7657 21.6686,29.8996 17.019,3.2884 30.7992,-1.0239 45.1134,-7.7555 12.573,-5.9453 21.6838,-8.8593 26.0937,-8.3458 14.3563,2.5166 19.4062,14.4608 33.0088,9.4199 3.7025,-1.4135 6.9883,-2.5986 7.3017,-2.6336 1.8366,-0.2046 15.8273,-5.8528 18.1195,-7.3149 11.4732,-6.3214 30.6083,-5.6423 42.1023,-12.4998 4.86,-0.7665 -8.6438,-18.583 1.5948,-17.3848 0.4672,0.073 6.2773,0.6045 12.9116,1.1805 8.9075,0.7735 12.651,1.5803 14.3137,3.0851 3.3239,3.0144 12.156,2.9336 9.9386,-1.4204 -2.8403,-3.1525 7.7619,-5.7765 13.8144,-7.9603 13.2571,-1.6928 8.9087,-9.5621 9.1396,-14.7852 -2.2818,-6.9154 -8.5884,-7.2259 -13.8569,-8.3482 -73.7366,-3.3488 -112.0993,25.451 -218.0465,23.1832 -45.9202,1.4013 -85.7441,-16.8994 -76.7847,-33.058 1.0348,-0.6397 9.082,1.7817 10.1196,3.0449 0.3134,0.3816 4.1594,2.5141 8.5468,4.7389 9.2303,4.6807 20.5728,8.4748 27.9196,9.339 2.8204,0.3318 8.4613,1.0462 12.5353,1.5877 108.514,8.7267 148.3528,-22.7611 221.6472,-23.7637 19.6786,-0.1095 29.1623,3.8987 36.5496,15.4469 3.629,5.6731 3.9907,6.9983 4.0313,14.7717 0.038,7.2576 -0.3531,9.0423 -2.6047,11.8877 -3.5836,4.5289 -9.0387,7.0286 -16.8916,7.7407 -5.4799,0.4969 -6.4669,0.9142 -6.0382,2.5533 0.6485,2.4802 -5.2108,7.5435 -10.3819,8.9714 -5.4396,1.5019 -14.4215,-0.434 -16.7486,-3.6099 -0.3784,-0.5167 -2.5712,-0.5861 -4.8728,-0.1544 -3.1442,0.5899 -3.8945,1.1347 -3.0177,2.1911 1.7436,2.1008 0.6189,8.4687 -1.8191,10.3002 -1.8475,1.3879 -7.5967,3.8874 -15.8123,6.8745 -1.2535,0.4557 -3.3909,0.9777 -4.7496,1.16 -2.2209,0.2979 -5.6064,1.1898 -18.6116,4.9031 -3.5177,1.0044 -20.5519,7.6092 -26.7801,10.3837 -3.5821,1.5958 -9.7411,3.3255 -16.0972,4.521 -6.8338,1.2853 -13.9989,-0.848 -19.5953,-5.8345 -4.7613,-4.2423 -8.0664,-5.7946 -10.2643,-4.8209 -2.2274,0.9866 -1.7022,0.8148 -8.0075,2.6206 -2.7295,0.7818 -9.1396,3.4636 -14.2447,5.9597 -8.6796,4.2438 -11.0223,5.0637 -22.1022,7.7357 -7.5817,1.8284 -18.1345,2.0013 -23.8311,0.3905 z m 105.0258,-35.248 c -9.8905,-2.235 -13.978,-7.1871 -13.2259,-16.0236 0.1472,-1.7288 8.3329,-5.6501 13.7956,-6.6086 13.0471,-2.2892 14.8529,-2.4162 15.9285,-1.1202 1.3405,1.6152 -0.6892,4.0194 -3.3931,4.0194 -8.1094,1.5118 -8.5034,8.2469 -3.898,6.8375 1.6643,0 15.9917,-6.1016 17.0317,-7.2532 7.689,-5.7446 11.9789,-3.7805 11.0366,5.3477 -0.7009,6.0027 -6.8865,10.0046 -20.3229,13.1479 -10.3362,2.4182 -12.5928,2.6382 -16.9525,1.6531 z m 227.1579,-52.734 c -19.4065,-10.01 -18.8014,-34.9424 -1.5222,-39.9317 13.6682,-5.0685 30.8196,-10.1425 38.7889,-21.9217 2.5583,-3.8661 3.1049,-5.8885 2.9416,-10.8844 -0.1716,-5.2518 0.1251,-6.2211 2.0586,-6.7268 1.7661,-0.4618 2.1247,-1.2624 1.6434,-3.6692 -1.1483,-5.7412 4.2779,-7.7904 13.4313,-5.0722 10.3932,3.0865 24.3558,18.8184 25.5586,28.7975 1.1879,9.8558 -2.0316,15.2178 -16.9767,28.2732 -2.3096,2.0177 -4.1993,4.4739 -4.1993,5.4585 -3.4434,15.1326 -21.6668,22.514 -34.8958,26.7298 -9.7549,3.0129 -17.6744,2.702 -26.8284,-1.053 z m 23.1481,-11.9353 c 8.2192,-2.4945 22.2768,-10.588 26.3986,-15.1988 1.1369,-1.2718 2.1159,-4.0205 2.1752,-6.108 0.09,-3.1563 1.434,-5.0474 7.9792,-11.2254 14.6114,-13.7917 15.4837,-17.7747 5.9205,-27.0371 -6.5759,-6.3691 -10.0352,-8.3123 -14.7976,-8.3123 -3.5316,0 -3.5109,1.645 0.074,5.9057 3.8712,4.6008 3.6561,9.5805 -0.8097,18.7394 -5.8695,10.8186 -30.0663,26.727 -44.0959,27.7435 -0.881,0.017 -3.3169,1.34 -5.413,2.9388 -11.4375,8.7237 5.0217,17.8796 22.5685,12.5542 z m -256.7802,-4.0438 c -4.6802,-1.4125 -7.712,-3.9346 -10.1116,-8.412 -3.5149,-6.5579 0.3142,-13.2615 7.5751,-13.2615 4.8941,0 7.5914,4.2864 5.1535,8.19 -1.2622,2.0213 -1.0687,2.7222 1.488,5.3909 1.6165,1.6873 2.9389,3.7172 2.9389,4.5111 0,1.3213 -2.763,4.8313 -3.6222,4.6015 -0.2014,-0.054 -1.7412,-0.5129 -3.4217,-1.02 z m -206.3929,-9.5967 c -2.8171,-7.2455 -5.1735,-28.2806 -0.6256,-50.7423 0.6118,-3.0213 3.4897,-4.3934 -0.01,-5.7779 -3.4385,-1.7488 -11.0786,-8.775 -13.1764,-13.8158 -0.9451,-2.2712 -2.2794,-7.6557 -2.9652,-11.9655 -1.203,-7.5597 -3.5286,-12.9642 -5.5787,-12.9642 -1.2593,0 -14.1904,-6.2208 -19.6978,-9.4761 -15.0923,-9.9837 -34.2453,-27.8628 -18.9784,-41.8454 4.4245,-4.4358 14.4265,-10.183 20.5478,-11.7467 l 3.0554,-0.752 -3.91,-5.8104 c -5.7879,-8.6007 -5.2138,-12.3571 2.7167,-17.7761 2.9364,-2.0064 8.672,-4.7697 12.7459,-6.1407 16.3785,-7.114 21.3008,-7.9856 38.3402,-8.2904 8.472,-0.1251 10.8328,0.219 12.625,1.8404 1.2125,1.0968 2.7257,1.9942 3.3627,1.9942 0.6369,0 1.9933,0.923 3.0143,2.0511 1.7357,1.918 1.6415,2.1778 -1.4544,4.0065 -2.095,1.2376 -3.5732,1.5305 -4.0259,0.798 -0.8817,-1.4268 -11.7052,-1.3962 -19.384,0.055 -4.721,1.0531 -37.5222,7.2512 -38.1757,16.0298 0,1.1094 2.3305,3.9652 5.1791,6.3462 4.275,3.5735 5.1205,4.9105 4.8432,7.6594 -3.6865,9.7541 -27.8737,11.2074 -30.8246,22.9392 -0.4107,2.1487 0.6617,4.5449 4.1278,9.2233 4.4889,6.059 11.6791,11.165 23.5119,16.697 14.7234,6.8832 19.5919,13.3339 21.2472,28.1521 0.892,7.9853 3.4517,11.2779 10.6609,13.7132 13.9646,4.9342 17.4927,2.3549 28.8553,-0.5563 15.0321,-3.7969 17.003,-3.4867 24.1349,3.7997 6.4477,6.0637 12.6234,9.4694 20.5123,9.3486 3.7606,-0.092 11.4527,-1.504 17.0936,-3.1366 11.8189,-3.4207 16.9242,-3.4742 25.5694,-0.268 6.7471,2.5022 13.9473,2.1316 16.9517,-0.8729 2.3293,-2.3293 5.1222,-1.412 6.3524,2.0864 0.8632,2.4543 0.552,3.6295 -1.6858,6.3678 -4.7626,5.8277 -8.0405,6.6137 -18.0027,4.3166 -13.9257,-3.2108 -15.117,-3.3042 -18.8333,-1.4748 -7.1821,3.5355 -14.0123,4.8521 -25.1661,4.8512 -10.6903,-8e-4 -11.819,-0.2299 -18.2332,-3.7012 -11.3216,-4.2732 -12.5182,-16.2849 -25.4724,-9.1548 -6.0229,2.68 -22.0983,4.7498 -27.6043,1.7124 -2.6706,-1.6678 -2.0855,1.048 -2.5437,2.4589 -3.1929,13.2432 -2.6601,29.2422 1.188,43.7033 5.2135,11.1162 -5.1909,27.0582 -10.2901,6.1181 z m 125.983,-8.0883 c 3.0315,-4.1823 3.2522,-5.1365 2.6756,-11.5666 -1.8012,-6.8755 2.0571,-7.0651 5.3428,-7.849 3.1965,-0.8023 6.3711,2.3237 7.1345,7.0254 0.2923,1.8005 0.7783,4.3717 1.08,5.7139 0.5481,2.4376 -2.7009,10.8527 -5.4375,14.0835 -2.0174,2.3817 -6.1077,4.5583 -8.5662,4.5583 -11.6099,4.7579 -4.8135,-8.3422 -2.2292,-11.9655 z m 66.1198,-6.9969 c -5.3669,-2.2364 -7.5351,-6.2701 -7.5351,-14.0182 0,-8.7139 3.0919,-13.6902 11.6066,-18.6805 14.65,-6.995 83.3397,-11.938 61.7059,-35.0574 -12.5992,-9.4137 -21.4546,-38.0425 2.2826,-47.7512 6.8021,-3.2387 12.3821,-4.8699 18.037,-6.2402 6.957,-1.0207 0.193,8.1019 -4.1006,10.3431 -8.5007,4.4175 -18.1818,10.1062 -16.6148,21.1656 1.2145,12.6401 18.7354,23.0189 19.0918,34.6002 0.093,4.3266 -0.4808,5.5783 -4.3976,9.5898 -12.7203,12.0303 -34.8504,14.3671 -47.346,16.0768 -18.1034,2.4184 -24.7797,6.3422 -27.4096,16.1091 -1.175,4.3634 -1.0662,4.8373 1.6237,7.0705 2.1867,1.8154 2.7333,3.116 2.2632,5.385 -0.7115,3.4348 -3.3672,3.8407 -9.2071,1.4074 z m 156.3114,-42.0186 c -10.1136,-5.2619 -15.7741,-11.9614 -18.0266,-21.3358 -2.9765,-6.7891 4.5319,-12.4533 12.9607,-12.8361 3.8007,0.7064 44.0652,-8.0604 40.0021,-14.0219 -1.1774,-1.6903 -4.029,-5.8937 -6.3367,-9.3409 -8.9383,-13.351 -8.06,-16.9874 -20.9209,-31.9475 -6.8364,-7.9522 -26.9577,-23.8916 -28.1192,-23.8916 -5.7696,-5.8314 -18.3563,-12.3168 -24.7876,-17.3558 -1.7149,-0.2119 -1.7791,-0.8098 -5.4677,0.8547 -3.9327,1.7746 -7.4828,2.2563 -16.6268,2.2563 -10.4772,0 -11.8957,-0.2526 -14.35,-2.556 -1.6084,-1.5096 -3.1634,-2.146 -3.7981,-1.5544 -31.0496,12.6889 -63.4424,22.6461 -94.5197,10.4566 -16.4566,-6.8854 -25.6404,-13.6285 -25.6404,-18.826 0,-1.1207 -0.6297,-1.782 -1.4245,-1.496 -9.6235,1.6825 -35.501,10.1531 -42.5088,16.9213 -0.3715,0.6011 0.7707,1.0694 2.5414,1.0419 5.3784,-0.084 8.7606,0.6806 9.2287,2.0851 0.2448,0.7341 0.9716,1.3348 1.6153,1.3348 16.6148,8.4972 32.2102,19.7059 21.5296,39.0255 -3.4325,6.0269 -3.5621,6.6022 -1.6288,7.2326 1.1551,0.3766 5.9463,2.5512 10.6471,4.8323 13.0698,6.3424 16.396,11.5536 13.6452,21.3783 -1.3418,4.7927 -5.5979,10.7202 -7.6972,10.7202 -1.4044,0 -3.6796,-10.5389 -2.9103,-13.4806 3.2905,-11.2814 -39.6065,-18.5619 -26.399,-30.9628 15.548,-26.6048 -24.498,-31.3702 -27.4798,-38.1038 -0.3688,-0.9609 -1.4133,-1.3541 -2.5284,-0.9517 -3.1402,1.1332 -18.7463,11.6785 -22.4122,15.1442 -17.4963,16.5409 -24.8152,24.965 -29.8475,34.3541 -2.3398,4.3656 -6.2826,9.7719 -10.4398,14.3149 l -2.6813,2.9302 4.1065,3.762 c 7.9999,7.3289 16.9251,13.3204 24.9023,16.7171 1.7236,0.7339 3.1338,1.7216 3.1338,2.1949 0,0.4732 1.4102,1.5912 3.1338,2.4844 3.8564,1.9983 9.4015,7.0468 9.4015,8.5595 0,3.2706 -5.1509,2.1248 -17.2872,-3.8453 -13.4133,-6.5984 -19.3459,-9.7926 -20.3187,-10.9403 -0.3134,-0.3697 -2.6403,-2.1646 -5.1709,-3.9885 -8.5485,-6.1617 -20.5611,-18.0698 -25.3757,-25.1552 -3.3602,-4.9451 -4.8078,-15.1001 -3.417,-23.97 1.1489,-7.3253 6.6458,-18.7785 10.9696,-22.8555 2.842,-2.6797 14.8819,-10.965 16.1565,-11.1182 0.3134,-0.038 1.5955,-0.639 2.8489,-1.3364 2.4874,-1.3838 8.9443,-1.4316 9.4015,-0.07 0.7168,2.1346 -0.3306,3.3511 -9.8705,11.4648 -8.4072,7.1505 -10.8102,9.9667 -13.9598,16.3603 -3.2699,6.6381 -3.848,9.088 -4.1154,17.4382 -0.3263,10.1955 -0.026,10.9971 6.052,16.18 2.1643,1.8455 2.2378,1.7649 2.2897,-2.511 33.3939,-67.662 100.4215,-92.3745 168.6034,-100.9139 8.5237,-0.9977 35.5435,-0.7037 48.4319,0.5269 63.3415,8.0015 106.8377,34.7426 136.0282,71.1707 13.3659,16.5439 23.5122,34.2614 23.5122,41.0569 0,2.2074 0.4082,4.2658 0.907,4.5741 0.4988,0.3083 6.2836,-2.4437 12.8551,-6.1155 20.5466,-11.4805 27.8718,-23.8186 21.7787,-36.6831 -2.0338,-4.2943 -5.5018,-8.3691 -13.7751,-16.1855 -4.602,-4.3478 -7.4789,-10.5827 -5.766,-12.4957 4.424,-4.9403 23.9871,13.5991 30.1376,28.5605 2.3353,5.6807 2.637,7.926 2.1735,16.1702 -0.4195,7.4574 -1.0935,10.3541 -3.0496,13.1051 -10.6093,13.2569 -25.5086,23.6268 -42.6755,25.9961 -0.4819,0.051 -5.748,1.7388 -11.7023,3.7493 -10.2469,3.46 -27.4644,7.1498 -36.8308,7.893 -2.3438,0.186 -6.3743,2.4507 -4.6692,5.0482 7.7358,13.0111 33.0436,8.0835 37.5115,7.5443 24.7034,-8.3916 48.9147,-12.7409 71.0296,-25.1957 -32.5778,-20.0725 39.6643,-28.6938 31.4431,-43.3755 -1.0657,-1.6895 -14.8252,-5.576 -22.1327,-7.3732 -2.1668,-0.5329 -31.6941,-3.4411 -9.3416,-11.5115 34.4122,-18.6264 21.8207,-31.3783 -8.3485,-29.8898 -14.9378,0.7643 -16.1309,0.2723 -16.7141,-6.893 l -0.3528,-4.3357 7.5387,-1.2574 c 6.9553,-1.1601 20.9071,-1.3096 24.9392,-0.2672 65.1786,16.0136 -0.056,40.3837 15.078,45.1645 8.7753,2.2243 14.9746,5.7671 18.3927,10.5109 3.5933,4.987 5.0196,13.1164 2.9724,16.9418 -8.9332,14.4992 -25.0887,18.4112 -37.5744,24.7304 4.0151,4.6923 17.2833,10.6089 2.9787,18.3061 -31.5556,13.6429 -84.3626,35.7619 -111.8786,25.8508 z m -91.6735,-138.7633 c 8.0337,-2.1514 13.6749,-2.1262 13.6749,0.061 0,1.0286 0.673,1.3831 1.8026,0.9497 0.9914,-0.3805 4.9657,-0.7264 8.8317,-0.7689 6.2271,-0.068 6.7041,-0.2271 4.1801,-1.3919 -16.351,-9.6109 -38.6823,-8.624 -53.5599,-10.4042 -14.7442,-1.7717 -38.9692,-1.2484 -52.1952,1.1277 -5.4513,0.9793 -13.2449,2.3283 -17.3189,2.9976 -8.7401,1.4362 -13.2064,5.2603 -8.2619,7.0741 39.1361,22.8334 72.1759,8.5339 102.8466,0.3552 z m -113.2705,135.811 c -1.8159,-0.5033 -6.4312,-1.0111 -10.2562,-1.1286 -7.3572,0.04 -13.8868,-3.0376 -20.1066,-4.29 -26.8167,-5.2651 -43.2569,-11.8492 -43.2569,-17.3237 0,-3.373 4.3826,-4.8196 9.1166,-3.0091 27.6922,8.4079 57.2556,14.9246 85.4681,12.7535 8.5421,-0.713 24.0689,-2.7292 26.1816,-3.3997 4.7358,-0.6282 4.5462,5.2924 2.2445,7.7586 -6.6651,4.3633 -40.3447,11.0063 -49.3911,8.6392 z m 162.1653,-85.672 c -0.9989,-0.7635 -2.178,-3.3224 -2.6203,-5.6862 -1.0933,-5.8442 3.4177,-12.285 10.4223,-14.8811 4.6136,-1.7099 5.2811,-1.6923 10.2997,0.2712 6.9228,2.7087 9.0305,7.1618 4.9528,10.4637 -2.0796,1.684 -3.1355,1.8819 -4.9263,0.9235 -1.2539,-0.671 -3.4892,-0.9164 -4.9676,-0.5453 -8.2919,2.6883 -8.8649,12.6593 -13.1606,9.4542 z m -266.1031,-58.8236 c -28.4388,-20.8905 35.6041,-34.1478 40.5742,-34.7621 13.3568,-1.5979 17.6724,-1.3981 40.2701,1.8646 l 10.0713,1.454 -2.3018,2.9263 c -1.266,1.6094 -4.516,3.5791 -7.2224,4.3772 -21.2509,8.5423 -42.4557,14.3956 -60.9398,22.8873 -8.6177,3.9888 -15.2941,4.3977 -20.4516,1.2527 z m 9.5363,-11.4131 c 3.7858,-1.9969 9.9755,-4.4833 13.1004,-5.2623 3.4866,-0.8691 4.8731,-2.2987 3.2204,-3.3201 -0.5937,-0.3669 -1.4015,-0.146 -1.7951,0.491 -0.3938,0.637 -1.9776,1.1582 -3.5195,1.1582 -3.3599,0 -18.7138,5.8116 -18.7138,7.0834 0,1.2291 5.288,1.1261 7.7076,-0.1503 z" fill="#030303" transform="translate(-150.9446,131.91781) matrix(0.26458333,0,0,0.26458333,-1559.8686,-732.58414)"/>
</svg>